<?xml version="1.0" standalone="no"?>
<!DOCTYPE svg PUBLIC "-//W3C//DTD SVG 20010904//EN"
 "http://www.w3.org/TR/2001/REC-SVG-20010904/DTD/svg10.dtd">
<svg version="1.0" xmlns="http://www.w3.org/2000/svg"
 width="1422.000000pt" height="1422.000000pt" viewBox="0 0 1422.000000 1422.000000"
 preserveAspectRatio="xMidYMid meet">
<metadata>
Created by potrace 1.14, written by Peter Selinger 2001-2017
</metadata>
<g transform="translate(0.000000,1422.000000) scale(0.100000,-0.100000)"
fill="#000000" stroke="none">
<path d="M8544 14205 c-195 -42 -373 -162 -484 -325 -259 -381 -127 -911 279
-1123 119 -63 230 -90 366 -89 99 1 149 9 245 39 238 75 438 289 505 543 36
136 23 351 -30 480 -93 227 -293 404 -525 465 -84 23 -275 28 -356 10z"/>
<path d="M6272 14113 c-285 -42 -516 -234 -615 -510 -35 -96 -42 -147 -41
-273 5 -346 232 -637 574 -736 100 -29 310 -27 410 5 178 55 320 155 422 296
55 77 109 195 124 270 2 11 6 32 9 46 20 90 7 276 -26 378 -20 63 -78 172
-123 230 -174 226 -447 335 -734 294z"/>
<path d="M10917 13494 c-1 -1 -27 -5 -57 -8 -164 -20 -325 -99 -445 -221 -75
-75 -117 -135 -155 -218 -54 -120 -72 -204 -72 -337 1 -282 158 -546 404 -675
66 -35 134 -63 173 -71 11 -2 31 -6 45 -10 14 -3 68 -8 121 -11 310 -18 606
162 737 449 55 120 67 181 66 338 -1 250 -107 459 -309 610 -50 38 -145 92
-181 103 -81 25 -136 38 -179 43 -50 5 -145 10 -148 8z"/>
<path d="M4210 13149 c-558 -60 -893 -659 -654 -1166 20 -43 41 -79 45 -81 5
-2 9 -8 9 -14 0 -34 148 -184 242 -245 218 -141 496 -172 739 -80 313 118 525
418 531 752 3 147 -40 310 -114 436 -47 80 -165 207 -241 258 -165 112 -361
161 -557 140z"/>
<path d="M8442 12144 c-46 -13 -101 -34 -124 -47 -22 -12 -51 -28 -64 -35 -31
-17 -146 -129 -171 -167 -112 -165 -148 -347 -105 -535 68 -303 349 -517 661
-505 106 4 163 17 246 54 249 113 398 351 390 623 -8 261 -162 484 -405 588
-79 33 -121 41 -240 45 -88 3 -119 -1 -188 -21z"/>
<path d="M6593 12094 c-258 -54 -465 -265 -511 -519 -9 -52 -8 -218 2 -270 20
-105 108 -258 194 -337 133 -122 312 -187 486 -175 117 8 162 20 261 70 292
146 432 492 325 803 -73 211 -254 372 -480 426 -66 16 -206 17 -277 2z"/>
<path d="M12238 11716 c-1 -2 -41 -6 -88 -9 -267 -18 -511 -193 -630 -451
-176 -384 -1 -854 382 -1025 123 -55 181 -66 333 -65 130 0 146 2 232 32 362
124 575 460 530 839 -41 345 -335 635 -677 669 -30 3 -60 7 -67 9 -6 2 -13 2
-15 1z"/>
<path d="M2659 11646 c-2 -2 -27 -6 -55 -10 -71 -8 -177 -42 -254 -81 -243
-123 -415 -352 -468 -625 -14 -72 -6 -292 12 -365 21 -82 80 -213 127 -282
265 -389 805 -494 1200 -233 418 276 518 848 218 1246 -162 216 -399 339 -670
350 -58 2 -108 2 -110 0z"/>
<path d="M10155 11294 c-230 -48 -414 -214 -492 -443 -35 -101 -40 -251 -12
-361 76 -304 343 -504 659 -496 165 5 311 64 426 173 135 128 202 274 209 458
9 208 -77 399 -240 535 -59 49 -189 114 -260 130 -78 18 -212 20 -290 4z"/>
<path d="M5005 11045 c-147 -26 -292 -110 -393 -229 -48 -57 -113 -185 -132
-261 -16 -68 -21 -199 -9 -260 6 -27 12 -59 14 -71 19 -88 89 -207 171 -289
130 -130 256 -184 439 -190 238 -9 439 90 566 277 232 341 106 802 -266 973
-122 56 -254 73 -390 50z"/>
<path d="M7821 10435 c-129 -36 -230 -122 -282 -240 -90 -203 -2 -448 196
-545 76 -37 129 -49 208 -45 84 4 131 18 201 60 62 37 89 63 135 130 153 221
44 541 -215 630 -68 24 -177 28 -243 10z"/>
<path d="M6572 10158 c-78 -9 -172 -52 -229 -104 -177 -164 -184 -441 -16
-609 212 -213 558 -150 686 124 26 55 32 80 34 151 3 95 -11 152 -54 231 -46
85 -162 176 -247 195 -93 21 -98 21 -174 12z"/>
<path d="M9088 9885 c-2 -2 -20 -5 -41 -8 -51 -7 -153 -58 -197 -99 -144 -133
-180 -358 -85 -523 109 -188 335 -263 540 -178 154 64 257 232 249 408 -4 116
-53 218 -142 296 -47 41 -128 83 -179 94 -33 7 -140 15 -145 10z"/>
<path d="M12646 9768 c-79 -9 -236 -59 -276 -88 -16 -11 -31 -20 -35 -20 -3 0
-32 -20 -63 -44 -197 -152 -303 -366 -305 -611 -1 -122 7 -171 44 -273 68
-190 219 -356 399 -439 187 -86 412 -94 606 -22 236 89 414 288 479 539 22 82
26 242 10 329 -77 403 -451 677 -859 629z"/>
<path d="M1737 9724 c-1 -1 -32 -4 -68 -8 -72 -6 -177 -35 -249 -68 -105 -47
-242 -158 -311 -249 -63 -84 -126 -216 -143 -300 -3 -13 -9 -45 -14 -71 -10
-49 -8 -236 2 -275 3 -13 8 -33 11 -44 27 -127 112 -282 207 -379 157 -161
366 -250 595 -251 329 -2 643 213 763 522 28 74 33 90 47 174 14 78 6 246 -16
328 -75 283 -278 495 -562 586 -62 20 -249 45 -262 35z"/>
<path d="M11025 9699 c-214 -29 -395 -157 -495 -350 -74 -142 -91 -287 -55
-464 13 -63 68 -173 118 -237 128 -164 305 -253 512 -257 295 -6 557 187 639
471 24 79 26 95 26 178 1 93 -5 130 -30 211 -91 295 -405 492 -715 448z"/>
<path d="M3928 9605 c-2 -1 -28 -5 -58 -8 -90 -10 -179 -43 -278 -104 -52 -31
-177 -169 -209 -228 -55 -106 -77 -196 -77 -320 0 -190 59 -332 194 -465 127
-126 278 -189 457 -191 50 0 96 1 100 4 4 3 24 8 45 11 103 16 245 94 331 181
188 192 239 511 119 750 -96 193 -285 333 -483 360 -58 8 -137 13 -141 10z"/>
<path d="M5530 9349 c-136 -26 -267 -139 -316 -274 -23 -66 -24 -222 -1 -283
44 -115 150 -220 260 -259 81 -28 226 -25 297 7 172 75 273 232 265 410 -9
183 -114 320 -300 389 -40 15 -149 20 -205 10z"/>
<path d="M7490 9076 c-223 -58 -299 -341 -135 -501 66 -64 107 -78 215 -79 61
0 84 5 126 27 166 85 214 305 98 451 -70 89 -195 130 -304 102z"/>
<path d="M9802 8924 c-120 -25 -221 -99 -282 -207 -107 -191 -53 -427 128
-555 115 -82 285 -95 417 -33 115 53 200 157 235 284 17 62 8 186 -17 250 -76
192 -280 302 -481 261z"/>
<path d="M8365 8857 c-213 -70 -296 -323 -167 -507 58 -83 177 -140 278 -136
116 6 222 73 279 177 40 74 47 188 16 270 -27 71 -90 140 -161 175 -65 33
-179 42 -245 21z"/>
<path d="M6545 8795 c-120 -42 -196 -161 -181 -284 21 -173 208 -281 368 -212
177 76 214 319 67 444 -70 60 -170 80 -254 52z"/>
<path d="M4890 8258 c-112 -17 -231 -96 -292 -194 -103 -167 -80 -378 57 -520
236 -242 651 -118 716 214 56 289 -187 542 -481 500z"/>
<path d="M3388 8075 c-2 -2 -21 -5 -43 -8 -146 -20 -294 -110 -387 -236 -81
-108 -121 -232 -121 -371 0 -166 61 -309 183 -430 123 -122 273 -181 440 -174
47 1 92 5 100 7 8 2 30 7 49 11 100 24 232 108 305 196 196 235 190 580 -15
804 -113 123 -262 194 -425 200 -46 2 -84 2 -86 1z"/>
<path d="M9065 8066 c-163 -39 -268 -177 -259 -339 6 -110 57 -194 159 -264
65 -45 197 -59 269 -29 20 8 36 13 36 10 0 -3 20 9 45 26 210 145 189 462 -39
569 -73 34 -143 43 -211 27z"/>
<path d="M11980 7929 c-264 -32 -501 -198 -619 -434 -200 -398 -40 -881 356
-1079 217 -108 483 -111 702 -9 229 107 398 327 447 581 13 70 13 239 0 303
-64 301 -294 543 -590 619 -85 22 -210 30 -296 19z"/>
<path d="M10335 7826 c-265 -75 -390 -383 -252 -621 38 -65 71 -100 132 -139
65 -41 99 -56 149 -63 149 -24 284 18 384 118 89 88 128 199 119 330 -9 130
-75 246 -184 319 -24 17 -48 30 -52 30 -4 0 -23 7 -41 16 -45 23 -190 28 -255
10z"/>
<path d="M1340 7765 c-362 -77 -620 -387 -622 -745 -1 -145 16 -224 72 -347
21 -45 43 -88 49 -95 6 -7 31 -39 56 -70 186 -235 513 -335 815 -251 65 18
172 70 232 111 142 99 269 284 303 441 3 11 8 31 11 44 18 66 12 258 -10 342
-62 234 -233 434 -449 523 -137 57 -323 76 -457 47z"/>
<path d="M4571 7128 c-212 -37 -329 -264 -238 -462 115 -251 477 -249 595 3
30 64 37 162 16 230 -47 157 -212 258 -373 229z"/>
<path d="M9540 7136 c-3 -2 -22 -6 -43 -9 -92 -12 -190 -86 -238 -179 -33 -64
-38 -185 -10 -259 26 -68 78 -130 138 -166 50 -29 134 -52 173 -47 82 11 106
17 141 35 87 44 159 136 174 221 13 71 13 89 -1 149 -28 121 -134 226 -246
244 -18 3 -44 8 -58 11 -14 2 -28 3 -30 0z"/>
<path d="M10529 6606 c-2 -2 -29 -7 -59 -11 -30 -4 -63 -11 -72 -16 -10 -5
-18 -8 -18 -5 0 2 -28 -6 -61 -19 -194 -77 -341 -205 -442 -386 -31 -57 -76
-179 -83 -228 -3 -20 -8 -44 -11 -55 -9 -30 -5 -207 6 -263 13 -69 55 -192 80
-236 10 -19 25 -45 33 -58 7 -13 15 -26 18 -29 3 -3 18 -22 33 -42 153 -206
430 -335 692 -323 260 12 473 122 634 328 176 224 221 549 114 817 -79 197
-228 355 -418 446 -49 24 -101 45 -115 48 -14 3 -43 10 -65 16 -39 11 -258 24
-266 16z"/>
<path d="M3430 6473 c-204 -33 -382 -198 -435 -405 -19 -73 -18 -203 2 -273
39 -136 151 -274 270 -334 218 -109 468 -70 633 98 103 106 150 214 155 358 5
162 -46 293 -159 409 -54 55 -159 115 -236 135 -39 11 -191 18 -230 12z"/>
<path d="M1709 5936 c-2 -2 -22 -6 -44 -9 -124 -17 -282 -100 -391 -203 -313
-300 -317 -805 -9 -1109 369 -366 984 -276 1232 180 25 46 60 134 67 167 3 13
8 34 11 48 3 14 9 66 12 115 18 289 -135 567 -392 714 -114 66 -214 93 -361
97 -66 3 -122 3 -125 0z"/>
<path d="M3708 5010 c-84 -26 -137 -58 -193 -114 -134 -136 -158 -357 -57
-516 149 -233 463 -270 656 -77 92 92 133 202 123 331 -10 138 -82 257 -201
330 -91 56 -232 76 -328 46z"/>
<path d="M2515 4235 c-479 -92 -757 -604 -572 -1055 155 -380 578 -574 969
-444 145 48 306 169 385 289 14 22 34 51 43 65 77 116 116 363 85 527 -81 420
-491 699 -910 618z"/>
<path d="M4263 3862 c-60 -21 -132 -74 -163 -118 -66 -97 -77 -243 -25 -341
96 -183 323 -237 488 -117 127 92 169 265 98 408 -55 111 -151 175 -274 182
-53 3 -85 0 -124 -14z"/>
<path d="M3948 2825 c-2 -2 -25 -5 -53 -6 -143 -9 -324 -92 -443 -203 -119
-111 -212 -286 -238 -446 -13 -83 -6 -228 16 -312 78 -300 314 -518 625 -577
79 -15 249 -6 333 18 82 24 192 76 249 117 57 41 157 145 189 195 45 71 90
169 110 239 28 100 26 310 -5 410 -50 162 -134 288 -263 397 -81 67 -247 142
-352 158 -40 7 -164 13 -168 10z"/>
<path d="M5618 1735 c-2 -2 -19 -6 -38 -9 -177 -29 -373 -163 -469 -320 -36
-59 -80 -162 -88 -205 -23 -125 -25 -249 -3 -333 34 -131 95 -241 188 -336
100 -101 224 -169 367 -200 63 -14 268 -6 330 13 116 34 252 117 322 194 82
90 161 236 177 326 3 17 8 41 11 55 8 37 8 158 0 210 -33 225 -182 433 -380
532 -51 26 -127 53 -180 64 -32 6 -232 14 -237 9z"/>
<path d="M7239 1199 c-228 -54 -416 -248 -458 -474 -10 -51 -8 -198 3 -248 30
-132 117 -262 238 -357 37 -29 163 -85 218 -98 77 -17 198 -14 283 7 111 29
191 75 273 157 246 244 236 637 -21 872 -64 59 -191 124 -273 141 -61 13 -210
13 -263 0z"/>
<path d="M8887 1104 c-1 -1 -24 -5 -50 -8 -161 -22 -315 -138 -387 -291 -57
-123 -60 -283 -7 -410 47 -114 128 -202 236 -258 344 -179 752 69 751 454 -1
85 -14 139 -57 228 -64 134 -200 241 -343 270 -53 11 -138 20 -143 15z"/>
</g>
</svg>
